<svg width="201" height="148" viewBox="0 0 201 148" fill="none" xmlns="http://www.w3.org/2000/svg">
<path d="M198.615 12.4411C196.515 11.4411 195.615 13.4411 194.315 14.4411C193.915 14.7411 193.515 15.2411 193.215 15.5411C190.115 18.8411 186.515 21.0411 181.715 20.7411C174.815 20.3411 168.915 22.5411 163.615 27.8411C162.515 21.2411 158.815 17.3411 153.215 14.8411C150.315 13.5411 147.315 12.2411 145.215 9.44113C143.815 7.44113 143.415 5.14113 142.715 2.94113C142.215 1.64113 141.815 0.241118 140.215 0.0411183C138.515 -0.258882 137.915 1.14112 137.215 2.34112C134.615 7.14112 133.615 12.4411 133.715 17.7411C133.915 29.7411 139.015 39.3411 149.115 46.1411C150.315 46.9411 150.515 47.7411 150.215 48.8411C149.515 51.1411 148.715 53.4411 148.015 55.8411C147.515 57.3411 146.815 57.6411 145.215 57.0411C139.715 54.7411 134.915 51.3411 130.715 47.1411C123.515 40.2411 117.015 32.5411 109.015 26.5411C107.115 25.1411 105.215 23.8411 103.215 22.5411C95.0151 14.5411 104.315 7.94112 106.415 7.14112C108.615 6.34112 107.215 3.54112 99.9151 3.54112C92.6151 3.54112 85.9151 6.04112 77.4151 9.24112C76.1151 9.74112 74.9151 10.0411 73.5151 10.3411C65.8151 8.84112 57.8151 8.54112 49.4151 9.54112C33.6151 11.3411 21.0151 18.7411 11.8151 31.5411C0.715053 46.8411 -1.98495 64.2411 1.31505 82.4411C4.71505 101.541 14.4151 117.441 29.4151 129.741C44.9151 142.541 62.8151 148.841 83.2151 147.641C95.6151 146.941 109.415 145.241 125.015 132.041C128.915 134.041 133.115 134.741 139.915 135.341C145.215 135.841 150.215 135.041 154.215 134.241C160.315 132.941 159.915 127.241 157.715 126.241C139.715 117.841 143.615 121.241 140.015 118.441C149.215 107.641 163.015 96.3411 168.415 59.7411C168.815 56.8411 168.415 55.0411 168.415 52.6411C168.415 51.2411 168.715 50.6411 170.315 50.5411C174.815 50.0411 179.215 48.7411 183.215 46.5411C194.915 40.1411 199.615 29.6411 200.715 17.0411C200.915 15.1411 200.715 13.1411 198.615 12.1411V12.4411ZM96.8151 125.641C79.3151 111.841 70.9151 107.341 67.3151 107.541C64.0151 107.741 64.6151 111.441 65.3151 113.941C66.0151 116.341 67.0151 118.041 68.4151 120.141C69.3151 121.541 70.0151 123.641 67.5151 125.141C61.9151 128.641 52.115 123.941 51.615 123.741C40.215 117.041 30.7151 108.141 24.0151 96.0411C17.5151 84.3411 13.8151 71.8411 13.1151 58.5411C12.9151 55.3411 13.9151 54.1411 17.1151 53.5411C21.3151 52.7411 25.7151 52.5411 29.9151 53.2411C47.7151 55.8411 62.9151 63.8411 75.6151 76.4411C82.9151 83.6411 88.4151 92.2411 94.0151 100.641C100.015 109.541 106.515 118.041 114.715 125.041C117.615 127.441 119.915 129.341 122.215 130.741C115.515 131.541 104.315 131.641 96.6151 125.641H96.8151ZM105.215 71.7411C105.215 70.2411 106.315 69.1411 107.815 69.1411C109.315 69.1411 108.415 69.1411 108.715 69.3411C109.015 69.4411 109.415 69.6411 109.615 69.9411C110.115 70.4411 110.315 71.0411 110.315 71.7411C110.315 73.1411 109.215 74.3411 107.715 74.3411C106.215 74.3411 105.215 73.2411 105.215 71.7411ZM131.215 85.0411C129.515 85.7411 127.915 86.3411 126.315 86.3411C123.815 86.4411 121.115 85.4411 119.615 84.2411C117.315 82.3411 115.715 81.2411 115.015 77.8411C114.715 76.4411 114.915 74.2411 115.115 72.9411C115.715 70.2411 115.115 68.4411 113.115 66.8411C111.515 65.5411 109.515 65.1411 107.315 65.1411C105.115 65.1411 105.715 64.8411 105.215 64.5411C104.315 64.0411 103.515 62.9411 104.315 61.5411C104.515 61.0411 105.615 59.9411 105.915 59.8411C108.915 58.1411 112.315 58.6411 115.515 59.9411C118.415 61.1411 120.715 63.3411 123.915 66.5411C127.215 70.3411 127.815 71.3411 129.615 74.2411C131.115 76.4411 132.415 78.7411 133.315 81.3411C133.915 82.9411 133.115 84.3411 131.215 85.1411V85.0411Z" fill="#4D6BFE"/>
</svg>
