<svg width="176" height="34" viewBox="0 0 176 34" fill="none" xmlns="http://www.w3.org/2000/svg">
<g clip-path="url(#clip0_58_1382)">
<path d="M128.088 26.1882C126.863 26.1882 125.71 25.9566 124.624 25.4936C123.539 25.0306 122.596 24.3956 121.797 23.5887C120.997 22.7819 120.366 21.8354 119.902 20.7527C119.438 19.6701 119.206 18.5176 119.206 17.2954L119.089 8.90472H123.439L123.557 17.2954C123.557 17.9252 123.674 18.5176 123.911 19.0674C124.148 19.619 124.474 20.1007 124.888 20.5144C125.303 20.9281 125.78 21.2532 126.324 21.4898C126.867 21.7264 127.453 21.8439 128.086 21.8439C128.719 21.8439 129.309 21.7264 129.861 21.4898C130.414 21.2532 130.898 20.9281 131.311 20.5144C131.723 20.1007 132.051 19.619 132.288 19.0674C132.525 18.5159 132.642 17.9252 132.642 17.2954L132.554 8.90472H136.993V30.2362H132.554L132.613 26.4248L132.702 24.2084C132.525 24.4842 132.262 24.7395 131.918 24.9761C131.571 25.2127 131.188 25.4187 130.763 25.5958C130.339 25.7728 129.89 25.9158 129.416 26.0247C128.942 26.132 128.499 26.1865 128.084 26.1865L128.088 26.1882Z" fill="#150D1E"/>
<path d="M101.142 24.1045C100.202 24.8876 99.169 25.4494 98.0384 25.7881C96.9078 26.1286 95.7771 26.2426 94.6448 26.1337C93.5125 26.0247 92.4211 25.703 91.3689 25.1685C90.3167 24.634 89.3993 23.8986 88.6148 22.9606C87.8304 22.0226 87.2693 20.991 86.9283 19.8624C86.5889 18.7355 86.4695 17.6086 86.5702 16.4851C86.6708 15.3615 86.9897 14.2755 87.5251 13.2252C88.0606 12.1765 88.7973 11.259 89.7369 10.4759C90.6765 9.69289 91.71 9.13283 92.8406 8.79237C93.9712 8.45362 95.1018 8.33105 96.2359 8.42638C97.3682 8.52171 98.4613 8.83663 99.5135 9.37115C100.564 9.90568 101.483 10.6428 102.268 11.579L103.386 12.917L93.3454 21.2872C94.1332 21.7077 94.9842 21.8779 95.8948 21.7996C96.8054 21.7213 97.624 21.3775 98.3504 20.7714C98.8041 20.3918 99.1673 19.956 99.435 19.4641L99.4436 19.4488C99.9466 18.5193 100.939 17.961 101.996 18.0103L104.307 18.1176C104.205 19.2547 103.889 20.3391 103.362 21.369C102.835 22.3988 102.095 23.3113 101.14 24.1062L101.142 24.1045ZM91.2768 19.0879L97.9548 13.5197C97.1363 12.9715 96.2273 12.7145 95.2297 12.7502C94.2321 12.7877 93.3317 13.14 92.5285 13.809C92.1346 14.1376 91.8106 14.5104 91.5565 14.9275C91.3024 15.3445 91.1216 15.7905 91.0159 16.2638C90.9102 16.737 90.8778 17.2136 90.9187 17.692C90.9596 18.172 91.079 18.6368 91.2768 19.0879Z" fill="#150D1E"/>
<path d="M111.805 17.709L111.834 25.9822H107.424C107.424 22.6133 107.429 19.842 107.44 17.6647C107.45 15.4892 107.455 13.7699 107.455 12.5085C107.455 10.6411 108.959 9.12091 110.828 9.09538L111.894 9.08176L111.776 11.5348C111.954 11.1807 112.17 10.8504 112.428 10.5457C112.683 10.241 113.004 9.97546 113.389 9.74736C113.775 9.52095 114.234 9.34391 114.766 9.21624C115.298 9.08857 115.939 9.02388 116.689 9.02388V13.3664C116.058 13.3664 115.451 13.4499 114.87 13.6167C114.288 13.7835 113.77 14.0457 113.316 14.3997C112.863 14.7538 112.498 15.2032 112.221 15.7446C111.945 16.2859 111.807 16.9413 111.807 17.709H111.805Z" fill="#150D1E"/>
<path d="M167.269 17.5915V25.9822H162.83L162.919 24.7821C161.558 25.8971 160.038 26.4554 158.36 26.4554C157.136 26.4554 155.983 26.2239 154.897 25.7609C153.811 25.2979 152.864 24.6629 152.056 23.856C151.246 23.0491 150.61 22.1026 150.148 21.02C149.684 19.9373 149.452 18.7849 149.452 17.5626C149.452 16.3404 149.684 15.1896 150.148 14.1052C150.611 13.0226 151.247 12.0761 152.056 11.2692C152.864 10.4623 153.812 9.82737 154.897 9.36434C155.981 8.90132 157.136 8.6698 158.36 8.6698C159.585 8.6698 160.738 8.90132 161.824 9.36434C162.908 9.82737 163.857 10.4623 164.665 11.2692C165.473 12.0778 166.109 13.0226 166.573 14.1052C167.037 15.1879 167.269 16.3404 167.269 17.5626V17.5915ZM162.919 17.5762C162.919 16.9447 162.799 16.3506 162.562 15.7973C162.325 15.2441 161.998 14.7606 161.582 14.3453C161.166 13.9299 160.681 13.6048 160.127 13.3664C159.573 13.1298 158.979 13.0107 158.345 13.0107C157.711 13.0107 157.117 13.1298 156.563 13.3664C156.009 13.6031 155.53 13.9299 155.124 14.3453C154.718 14.7606 154.395 15.2441 154.158 15.7973C153.921 16.3506 153.802 16.943 153.802 17.5762C153.802 18.2095 153.92 18.8019 154.158 19.3551C154.395 19.9084 154.718 20.3867 155.124 20.7919C155.53 21.197 156.01 21.5188 156.563 21.7554C157.117 21.992 157.711 22.1111 158.345 22.1111C158.979 22.1111 159.573 21.9937 160.127 21.7554C160.681 21.5188 161.166 21.197 161.582 20.7919C161.998 20.3867 162.323 19.9084 162.562 19.3551C162.799 18.8019 162.919 18.2095 162.919 17.5762Z" fill="#150D1E"/>
<path d="M173.529 7.69439C172.854 7.69439 172.274 7.45777 171.786 6.98623C171.3 6.51299 171.056 5.93251 171.056 5.24308V4.0021C171.056 3.88464 171.067 3.80634 171.085 3.76548H175.998V5.24308C175.998 5.93251 175.76 6.51299 175.284 6.98623C174.808 7.45947 174.221 7.69439 173.527 7.69439H173.529ZM175.794 9.17028H171.355V25.9822H175.794V9.17028Z" fill="#150D1E"/>
<path d="M144.786 26.3073C146.149 26.3073 147.254 25.2045 147.254 23.8441C147.254 22.4837 146.149 21.3809 144.786 21.3809C143.423 21.3809 142.318 22.4837 142.318 23.8441C142.318 25.2045 143.423 26.3073 144.786 26.3073Z" fill="#7117FF"/>
<path d="M42.5066 9.15156H44.8173L44.7883 4.56727H49.1727V9.18049H53.1426L53.2023 13.203H49.263L49.1744 18.1125C49.1539 18.7627 49.292 19.316 49.5887 19.7688C49.8855 20.2233 50.2555 20.5876 50.6989 20.8634C51.144 21.1391 51.6317 21.3366 52.1655 21.4558C52.6992 21.5732 53.2023 21.6328 53.6764 21.6328V25.9805C52.452 25.9805 51.3009 25.8222 50.2248 25.5072C49.1488 25.1923 48.2143 24.685 47.4247 23.9837C46.6352 23.284 46.0076 22.3716 45.5438 21.2481C45.0799 20.1246 44.848 18.744 44.848 17.1081L44.819 13.2047H42.5083V9.15326L42.5066 9.15156Z" fill="#150D1E"/>
<path fill-rule="evenodd" clip-rule="evenodd" d="M79.1741 25.3898V16.7778C79.1741 14.8781 77.6172 13.3239 75.7141 13.3239C74.4351 13.3239 73.313 14.0252 72.7144 15.0619C72.1107 16.1054 72.3137 18.7542 71.7867 20.2063C71.091 22.118 69.6687 23.6909 67.8577 24.5846C66.8123 25.1004 65.6374 25.3915 64.3976 25.3915C63.1579 25.3915 61.9829 25.1004 60.9376 24.5846C58.3387 23.3011 56.5413 20.625 56.5413 17.549V9.02559H60.9376V17.6375C60.9376 19.5373 62.4945 21.0915 64.3976 21.0915C65.5044 21.0915 66.4952 20.5655 67.1295 19.7518C68.1851 18.3967 67.6821 16.7064 68.0658 15.0807C68.608 12.7792 70.1752 10.859 72.254 9.83247C73.2994 9.31668 74.4743 9.02559 75.7141 9.02559C76.9538 9.02559 78.1288 9.31668 79.1741 9.83247C81.773 11.116 83.5704 13.792 83.5704 16.8681V25.3915H79.1741V25.3898Z" fill="#7117FF"/>
<path fill-rule="evenodd" clip-rule="evenodd" d="M29.8651 0H4.19506C1.87925 0 0 1.87593 0 4.18765V29.8123C0 32.1258 1.87925 34 4.19506 34H29.8651C32.1826 34 34.0602 32.1241 34.0602 29.8123V4.18765C34.0602 1.87423 32.1809 0 29.8651 0ZM29.7253 24.6867H25.5967V16.5957C25.5967 14.8117 24.1336 13.3511 22.3464 13.3511C21.1459 13.3511 20.092 14.0099 19.5292 14.9836C18.9631 15.9642 19.1541 18.4529 18.6578 19.8148C18.0047 21.6107 16.6694 23.0883 14.9675 23.9275C13.9853 24.4127 12.8819 24.685 11.7172 24.685C10.5525 24.685 9.44913 24.4127 8.46687 23.9275C6.02657 22.7223 4.33831 20.208 4.33831 17.3192V9.31157H8.46687V17.4026C8.46687 19.1866 9.93003 20.6472 11.7172 20.6472C12.7574 20.6472 13.6868 20.1535 14.2837 19.3892C15.2762 18.1159 14.8038 16.5276 15.1636 15.0007C15.6735 12.8387 17.1452 11.0343 19.0978 10.0708C20.08 9.58564 21.1834 9.31327 22.3481 9.31327C23.5128 9.31327 24.6162 9.58564 25.5984 10.0708C28.0387 11.276 29.727 13.7903 29.727 16.6791V24.6867H29.7253Z" fill="#7117FF"/>
</g>
<defs>
<clipPath id="clip0_58_1382">
<rect width="176" height="34" fill="white"/>
</clipPath>
</defs>
</svg>
