<svg width="150" height="150" viewBox="0 0 150 150" fill="none" xmlns="http://www.w3.org/2000/svg">
<g clip-path="url(#clip0_222_1877)">
<mask id="mask0_222_1877" style="mask-type:luminance" maskUnits="userSpaceOnUse" x="2" y="0" width="147" height="150">
<path d="M147.23 61.3637H77.3438V90.3409H117.571C113.821 108.75 98.1392 119.318 77.3438 119.318C52.7983 119.318 33.0256 99.5455 33.0256 75C33.0256 50.4546 52.7983 30.6818 77.3438 30.6818C87.912 30.6818 97.4574 34.4318 104.957 40.5682L126.776 18.75C113.48 7.15909 96.4347 0 77.3438 0C35.7529 0 2.34375 33.4091 2.34375 75C2.34375 116.591 35.7529 150 77.3438 150C114.844 150 148.935 122.727 148.935 75C148.935 70.5682 148.253 65.7955 147.23 61.3637Z" fill="white"/>
</mask>
<g mask="url(#mask0_222_1877)">
<path d="M-4.47266 119.318V30.6816L53.4819 74.9998L-4.47266 119.318Z" fill="#FBBC05"/>
</g>
<mask id="mask1_222_1877" style="mask-type:luminance" maskUnits="userSpaceOnUse" x="2" y="0" width="147" height="150">
<path d="M147.23 61.3637H77.3438V90.3409H117.571C113.821 108.75 98.1392 119.318 77.3438 119.318C52.7983 119.318 33.0256 99.5455 33.0256 75C33.0256 50.4546 52.7983 30.6818 77.3438 30.6818C87.912 30.6818 97.4574 34.4318 104.957 40.5682L126.776 18.75C113.48 7.15909 96.4347 0 77.3438 0C35.7529 0 2.34375 33.4091 2.34375 75C2.34375 116.591 35.7529 150 77.3438 150C114.844 150 148.935 122.727 148.935 75C148.935 70.5682 148.253 65.7955 147.23 61.3637Z" fill="white"/>
</mask>
<g mask="url(#mask1_222_1877)">
<path d="M-4.47266 30.6817L53.4819 74.9999L77.3456 54.2044L159.164 40.9089V-6.81836H-4.47266V30.6817Z" fill="#EA4335"/>
</g>
<mask id="mask2_222_1877" style="mask-type:luminance" maskUnits="userSpaceOnUse" x="2" y="0" width="147" height="150">
<path d="M147.23 61.3637H77.3438V90.3409H117.571C113.821 108.75 98.1392 119.318 77.3438 119.318C52.7983 119.318 33.0256 99.5455 33.0256 75C33.0256 50.4546 52.7983 30.6818 77.3438 30.6818C87.912 30.6818 97.4574 34.4318 104.957 40.5682L126.776 18.75C113.48 7.15909 96.4347 0 77.3438 0C35.7529 0 2.34375 33.4091 2.34375 75C2.34375 116.591 35.7529 150 77.3438 150C114.844 150 148.935 122.727 148.935 75C148.935 70.5682 148.253 65.7955 147.23 61.3637Z" fill="white"/>
</mask>
<g mask="url(#mask2_222_1877)">
<path d="M-4.47266 119.318L97.8001 40.9089L124.732 44.318L159.164 -6.81836V156.818H-4.47266V119.318Z" fill="#34A853"/>
</g>
<mask id="mask3_222_1877" style="mask-type:luminance" maskUnits="userSpaceOnUse" x="2" y="0" width="147" height="150">
<path d="M147.23 61.3637H77.3438V90.3409H117.571C113.821 108.75 98.1392 119.318 77.3438 119.318C52.7983 119.318 33.0256 99.5455 33.0256 75C33.0256 50.4546 52.7983 30.6818 77.3438 30.6818C87.912 30.6818 97.4574 34.4318 104.957 40.5682L126.776 18.75C113.48 7.15909 96.4347 0 77.3438 0C35.7529 0 2.34375 33.4091 2.34375 75C2.34375 116.591 35.7529 150 77.3438 150C114.844 150 148.935 122.727 148.935 75C148.935 70.5682 148.253 65.7955 147.23 61.3637Z" fill="white"/>
</mask>
<g mask="url(#mask3_222_1877)">
<path d="M159.162 156.818L53.4801 74.9998L39.8438 64.7726L159.162 30.6816V156.818Z" fill="#4285F4"/>
</g>
</g>
<defs>
<clipPath id="clip0_222_1877">
<rect width="150" height="150" fill="white"/>
</clipPath>
</defs>
</svg>
