<svg width="35" height="34" viewBox="0 0 35 34" fill="none" xmlns="http://www.w3.org/2000/svg">
<path fill-rule="evenodd" clip-rule="evenodd" d="M29.8651 0H4.19506C1.87925 0 0 1.87593 0 4.18765V29.8123C0 32.1258 1.87925 34 4.19506 34H29.8651C32.1826 34 34.0602 32.1241 34.0602 29.8123V4.18765C34.0602 1.87423 32.1809 0 29.8651 0ZM29.7253 24.6867H25.5967V16.5957C25.5967 14.8117 24.1336 13.3511 22.3464 13.3511C21.1459 13.3511 20.092 14.0099 19.5292 14.9836C18.9631 15.9642 19.1541 18.4529 18.6578 19.8148C18.0047 21.6107 16.6694 23.0883 14.9675 23.9275C13.9853 24.4127 12.8819 24.685 11.7172 24.685C10.5525 24.685 9.44913 24.4127 8.46687 23.9275C6.02657 22.7223 4.33831 20.208 4.33831 17.3192V9.31157H8.46687V17.4026C8.46687 19.1866 9.93003 20.6472 11.7172 20.6472C12.7574 20.6472 13.6868 20.1535 14.2837 19.3892C15.2762 18.1159 14.8038 16.5276 15.1636 15.0007C15.6735 12.8387 17.1452 11.0343 19.0978 10.0708C20.08 9.58564 21.1834 9.31327 22.3481 9.31327C23.5128 9.31327 24.6162 9.58564 25.5984 10.0708C28.0387 11.276 29.727 13.7903 29.727 16.6791V24.6867H29.7253Z" fill="#7117FF"/>
</svg>
