<svg width="233" height="156" viewBox="0 0 233 156" fill="none" xmlns="http://www.w3.org/2000/svg">
<g clip-path="url(#clip0_222_1844)">
<path d="M24.9644 102.876C24.9644 111.844 26.9207 118.728 29.4795 122.893C32.8335 128.349 37.8357 130.665 42.9357 130.665C49.5127 130.665 55.5302 129.023 67.126 112.892C76.4183 99.9636 87.3627 81.816 94.7281 70.4387L107.201 51.1638C115.866 37.7776 125.894 22.8972 137.393 12.8106C146.784 4.57744 156.907 0.00390625 167.099 0.00390625C184.209 0.00390625 200.507 9.97636 212.98 28.6798C226.631 49.1628 233.257 74.9641 233.257 101.589C233.257 117.418 230.155 129.048 224.876 138.236C219.777 147.121 209.837 156 193.117 156V130.661C207.434 130.661 211.006 117.429 211.006 102.287C211.006 80.7093 206.004 56.7634 194.984 39.6527C187.165 27.516 177.031 20.1003 165.881 20.1003C153.821 20.1003 144.117 29.2494 133.211 45.5573C127.413 54.2233 121.461 64.783 114.777 76.6994L107.419 89.8081C92.6417 116.168 88.8974 122.169 81.5076 132.074C68.5561 149.42 57.4953 155.996 42.9357 155.996C25.6628 155.996 14.7409 148.473 7.97614 137.137C2.45456 127.901 -0.257812 115.78 -0.257812 101.969L24.9644 102.876Z" fill="#0081FB"/>
<path d="M19.6289 30.4643C31.1924 12.5371 47.8804 0 67.0206 0C78.1049 0 89.1265 3.29956 100.631 12.7496C113.218 23.0792 126.633 40.0984 143.37 68.1358L149.371 78.1948C163.858 102.468 172.1 114.956 176.924 120.845C183.127 128.407 187.472 130.662 193.116 130.662C207.433 130.662 211.005 117.43 211.005 102.288L233.256 101.586C233.256 117.415 230.154 129.045 224.875 138.233C219.776 147.119 209.836 155.997 193.116 155.997C182.722 155.997 173.513 153.727 163.33 144.064C155.505 136.648 146.349 123.475 139.309 111.632L118.366 76.4476C107.859 58.79 98.2164 45.6242 92.641 39.6616C86.6391 33.2494 78.9246 25.5071 66.6137 25.5071C56.6504 25.5071 48.1886 32.5391 41.1078 43.2956L19.6289 30.4643Z" fill="url(#paint0_linear_222_1844)"/>
<path d="M66.6145 25.5071C56.6512 25.5071 48.1893 32.5391 41.1086 43.2956C31.0954 58.4948 24.9693 81.1343 24.9693 102.876C24.9693 111.844 26.9256 118.728 29.4844 122.893L7.97615 137.137C2.45456 127.901 -0.257812 115.78 -0.257812 101.97C-0.257812 76.8549 6.59599 50.6788 19.6297 30.4643C31.1932 12.5371 47.8812 0 67.0214 0L66.6145 25.5071Z" fill="url(#paint1_linear_222_1844)"/>
</g>
<defs>
<linearGradient id="paint0_linear_222_1844" x1="50.362" y1="73.9557" x2="211.153" y2="82.03" gradientUnits="userSpaceOnUse">
<stop stop-color="#0064E1"/>
<stop offset="0.4" stop-color="#0064E1"/>
<stop offset="0.83" stop-color="#0073EE"/>
<stop offset="1" stop-color="#0082FB"/>
</linearGradient>
<linearGradient id="paint1_linear_222_1844" x1="33.3813" y1="113.526" x2="33.3813" y2="53.9046" gradientUnits="userSpaceOnUse">
<stop stop-color="#0082FB"/>
<stop offset="1" stop-color="#0064E0"/>
</linearGradient>
<clipPath id="clip0_222_1844">
<rect width="233" height="156" fill="white"/>
</clipPath>
</defs>
</svg>
