<svg width="163" height="148" viewBox="0 0 163 148" fill="none" xmlns="http://www.w3.org/2000/svg">
<path d="M148.002 0H118.402V29.6H148.002V0Z" fill="black"/>
<path d="M162.799 0H133.199V29.6H162.799V0Z" fill="#F7D046"/>
<path d="M29.6 0H0V29.6H29.6V0Z" fill="black"/>
<path d="M29.6 29.5996H0V59.1996H29.6V29.5996Z" fill="black"/>
<path d="M29.6 59.2012H0V88.8012H29.6V59.2012Z" fill="black"/>
<path d="M29.6 88.8008H0V118.401H29.6V88.8008Z" fill="black"/>
<path d="M29.6 118.4H0V148H29.6V118.4Z" fill="black"/>
<path d="M44.4008 0H14.8008V29.6H44.4008V0Z" fill="#F7D046"/>
<path d="M162.799 29.5996H133.199V59.1996H162.799V29.5996Z" fill="#F2A73B"/>
<path d="M44.4008 29.5996H14.8008V59.1996H44.4008V29.5996Z" fill="#F2A73B"/>
<path d="M118.401 29.5996H88.8008V59.1996H118.401V29.5996Z" fill="black"/>
<path d="M133.202 29.5996H103.602V59.1996H133.202V29.5996Z" fill="#F2A73B"/>
<path d="M74.0024 29.5996H44.4023V59.1996H74.0024V29.5996Z" fill="#F2A73B"/>
<path d="M103.6 59.2012H74V88.8012H103.6V59.2012Z" fill="#EE792F"/>
<path d="M133.202 59.2012H103.602V88.8012H133.202V59.2012Z" fill="#EE792F"/>
<path d="M74.0024 59.2012H44.4023V88.8012H74.0024V59.2012Z" fill="#EE792F"/>
<path d="M88.7992 88.8008H59.1992V118.401H88.7992V88.8008Z" fill="black"/>
<path d="M103.6 88.8008H74V118.401H103.6V88.8008Z" fill="#EB5829"/>
<path d="M162.799 59.2012H133.199V88.8012H162.799V59.2012Z" fill="#EE792F"/>
<path d="M44.4008 59.2012H14.8008V88.8012H44.4008V59.2012Z" fill="#EE792F"/>
<path d="M148.002 88.8008H118.402V118.401H148.002V88.8008Z" fill="black"/>
<path d="M162.799 88.8008H133.199V118.401H162.799V88.8008Z" fill="#EB5829"/>
<path d="M148.002 118.4H118.402V148H148.002V118.4Z" fill="black"/>
<path d="M44.4008 88.8008H14.8008V118.401H44.4008V88.8008Z" fill="#EB5829"/>
<path d="M162.799 118.4H133.199V148H162.799V118.4Z" fill="#EA3326"/>
<path d="M44.4008 118.4H14.8008V148H44.4008V118.4Z" fill="#EA3326"/>
</svg>
